<svg width="165" height="165" viewBox="0 0 165 165" fill="none" xmlns="http://www.w3.org/2000/svg"><path d="M161.985 78.4303c-4.075-10.8044-5.433-20.2583-11.771-30.6124-5.885-9.0037-11.318-15.7563-18.561-22.9592-2.263-2.2509-3.621-4.952-5.885-7.2029-6.791-5.8524-14.939-11.70482-23.993-12.60519-4.5275-.45018-8.6018 2.25091-13.1289 2.25091-4.527 0-9.0541-1.8007-14.0339-1.8007-1.3581 0-6.7906.45027-6.3379 1.35063-9.9595 0-18.5609.4501-27.615 5.40205-3.6217 2.251-7.2433 4.5019-10.4123 7.203-3.1689 3.1512-5.8851 5.8523-9.0541 9.0036-1.8108 1.8007-4.9798 3.1513-6.3379 5.4022-1.3581 2.251-1.3581 5.4021-2.7162 7.6531-3.62167 5.8523-9.05414 11.7047-9.95955 18.9076-1.358121 8.1033 5.43247 11.2546 5.88518 18.4575 0 6.3026-1.35812 13.0552-.45271 19.3578.45271 2.7007 2.26353 4.9517 3.62168 8.1027 1.8108 4.052 1.3581 7.654.9054 12.155-1.3581 11.705 17.2028 22.059 24.8988 27.462 8.6014 6.302 12.2231 9.903 23.088 9.903 2.7163 0 4.9798-.9 7.696 0 1.3582.451 2.7163 1.351 4.5271 1.801 5.8852.901 9.9595 2.251 15.8447.45 11.7704-4.051 25.8046.451 36.2166-5.852 4.527-2.701 9.507-3.601 13.128-7.653 2.717-3.602 4.98-6.303 8.602-9.454 6.79-5.402 9.959-16.206 13.128-24.31 4.075-11.7044 6.791-20.708 2.717-32.4127z" fill="#D06D43"/></svg>